<svg version="1.1" id="Layer_1" xmlns="http://www.w3.org/2000/svg" xmlns:xlink="http://www.w3.org/1999/xlink" x="0px" y="0px"
	 width="100%" viewBox="0 0 336 135" enable-background="new 0 0 336 135" xml:space="preserve">
<path fill="#000000" opacity="1.000000" stroke="none" 
	d="
M337.000000,78.000000 
	C337.000000,97.324097 337.000000,116.648193 337.000000,135.979218 
	C225.062744,135.986145 113.125488,135.986145 1.094113,135.986145 
	C1.094113,91.084412 1.094113,46.168568 1.094113,1.126360 
	C112.999901,1.126360 224.999924,1.126360 337.000000,1.126360 
	C337.000000,17.745243 337.000000,34.403965 336.818787,51.934422 
	C335.102112,50.538441 333.566650,48.270718 332.062042,45.663704 
	C331.102081,44.197521 330.111237,43.070629 329.069519,41.639069 
	C328.463989,40.513611 327.909393,39.692822 327.207245,38.572800 
	C325.733063,37.117172 324.406433,35.960777 322.984192,34.590836 
	C322.664978,34.134430 322.388306,34.005043 321.876404,33.702518 
	C317.125244,31.309591 312.556274,29.203260 307.607513,26.978954 
	C305.737579,26.621260 304.247437,26.381538 302.725616,25.989355 
	C302.411102,25.602104 302.136444,25.602808 301.461609,25.760530 
	C298.228638,25.603436 295.404083,25.456898 292.579437,25.456102 
	C218.044968,25.435129 143.510483,25.429213 68.920532,24.935991 
	C68.768295,20.949493 68.671547,17.447727 68.642899,13.540815 
	C67.540817,12.415506 66.372978,11.072266 65.200096,11.067840 
	C44.818760,10.990924 24.436808,11.078384 3.797052,11.148128 
	C3.432250,11.464573 3.325385,11.762880 3.181913,12.524632 
	C3.137484,41.650024 3.357729,70.314682 3.016997,98.972679 
	C2.866829,111.602829 8.790383,119.771255 19.518017,125.101219 
	C36.016014,133.298141 54.583763,127.522926 67.029976,117.254616 
	C67.662865,116.732468 67.442390,115.175987 67.273682,113.845428 
	C67.232025,110.906799 67.535919,108.223831 68.217491,105.505852 
	C68.747231,105.268791 68.899284,105.066750 69.514969,104.820061 
	C144.590073,104.765984 219.201706,104.666504 293.812897,104.808731 
	C313.108154,104.845512 327.119659,97.156136 335.018066,79.191910 
	C335.271484,78.615562 336.321411,78.389412 337.000000,78.000000 
z"/>
<path fill="#0395D5" opacity="1.000000" stroke="none" 
	d="
M332.031189,46.002998 
	C333.566650,48.270718 335.102112,50.538441 336.818787,52.403080 
	C337.000000,52.444447 337.000000,52.888889 336.672913,53.549961 
	C336.563873,54.511055 336.781952,55.255527 337.000000,56.000000 
	C337.000000,62.021152 337.000000,68.042305 336.742279,74.652229 
	C336.656372,75.494003 336.828186,75.747002 337.000000,76.000000 
	C337.000000,76.444443 337.000000,76.888893 337.000000,77.666672 
	C336.321411,78.389412 335.271484,78.615562 335.018066,79.191910 
	C327.119659,97.156136 313.108154,104.845512 293.812897,104.808731 
	C219.201706,104.666504 144.590073,104.765984 69.431915,104.560539 
	C68.528198,103.934364 68.171143,103.523071 67.791733,102.537811 
	C67.440872,101.277565 67.112366,100.591286 66.451103,99.668709 
	C66.136887,96.949112 66.155426,94.465813 66.662743,91.862762 
	C67.743713,90.136642 68.822350,88.538109 68.848358,86.922630 
	C69.005562,77.156754 68.984146,67.386223 68.861397,57.619274 
	C68.839531,55.879665 68.063202,54.149540 67.436951,52.120872 
	C66.952446,50.159344 66.666229,48.491989 66.985283,46.951653 
	C72.472679,46.318008 77.354813,45.557343 82.445404,45.168961 
	C83.240562,57.256233 83.827255,68.971222 84.413940,80.686211 
	C84.907372,81.052994 85.400795,81.419769 85.894226,81.786552 
	C87.696426,80.427422 89.882416,79.362114 91.204407,77.635338 
	C92.884666,75.440598 93.864586,72.709694 95.419769,70.001732 
	C98.471764,64.533699 101.250443,59.273895 104.286301,53.778107 
	C105.973228,51.002468 107.402977,48.462814 109.290489,45.938652 
	C112.750420,45.976471 115.752594,45.998798 119.046555,46.205673 
	C121.092506,46.209347 122.846657,46.028477 125.093613,45.879234 
	C158.851791,45.942863 192.117172,45.971054 225.382538,46.012077 
	C229.190247,46.016773 232.997772,46.103764 236.805542,46.134323 
	C245.946182,46.207687 255.086884,46.270180 264.235229,46.735664 
	C261.526825,58.063251 258.810760,68.992233 256.093964,79.924049 
	C263.705170,81.648590 264.148254,81.374458 265.809418,74.348007 
	C266.308441,72.237320 266.885529,70.145111 267.722046,66.899071 
	C269.604767,71.038284 270.463928,74.216156 272.324127,76.619110 
	C273.881348,78.630699 276.680176,81.009209 278.797241,80.889587 
	C280.958466,80.767479 283.101959,77.936012 284.958160,76.006752 
	C285.687439,75.248764 285.616364,73.720726 286.169434,71.501274 
	C284.311493,73.257492 283.313995,74.200394 281.197266,76.201241 
	C278.708130,69.984337 276.534973,64.556648 274.659302,58.985008 
	C276.302277,57.774143 277.647705,56.707218 278.993164,55.640297 
	C279.051758,56.220142 279.110382,56.799992 279.168976,57.379837 
	C281.126923,57.837952 283.084839,58.296062 285.042786,58.754173 
	C285.536133,56.538307 287.040222,53.867744 286.294189,52.209465 
	C285.068848,49.485806 282.123627,49.977261 280.010223,51.814880 
	C277.461884,54.030716 275.152618,56.521530 272.462769,59.051632 
	C271.271301,60.029545 270.356995,60.849148 268.521149,62.494801 
	C270.258911,56.201664 271.666016,51.105957 273.537231,46.009842 
	C293.344574,46.007286 312.687897,46.005146 332.031189,46.002998 
M301.122070,78.292763 
	C301.436493,77.871872 301.750946,77.450981 302.788147,76.942039 
	C303.416351,77.376396 304.190063,77.693565 304.649384,78.263924 
	C307.916077,82.320129 310.999298,82.439911 313.720001,79.613556 
	C310.408508,69.151512 316.974640,60.671623 317.448120,50.001862 
	C313.861176,51.413105 311.148834,52.610672 308.335938,53.484478 
	C307.722748,53.674953 306.749969,52.707737 305.498474,51.703480 
	C301.851654,49.193153 298.455566,50.397396 295.352325,52.661758 
	C289.200867,57.150349 286.010345,69.236504 288.938354,76.328102 
	C291.256226,81.941963 296.035645,82.881065 301.122070,78.292763 
M147.765564,61.638634 
	C146.729568,66.142548 145.143738,70.619476 144.920792,75.163284 
	C144.828079,77.052994 147.272537,79.928719 149.248108,80.795975 
	C150.942566,81.539825 153.613083,80.060234 155.851959,79.563919 
	C155.253754,79.180138 154.655563,78.796356 154.057358,78.412575 
	C153.740112,76.406052 152.839294,74.278427 153.225403,72.417870 
	C154.065216,68.370926 156.175568,64.522179 156.584167,60.473099 
	C156.881210,57.529518 156.210709,53.473618 154.312012,51.562286 
	C151.503021,48.734627 147.838211,50.625187 144.480209,53.337780 
	C143.845917,53.703026 143.211609,54.068268 142.282501,54.603271 
	C142.282501,53.086300 142.282501,52.038128 142.282501,50.855431 
	C137.779404,51.102039 133.625168,51.329544 129.470932,51.557049 
	C134.875916,53.451157 133.428802,57.381611 132.698135,60.601501 
	C131.214447,67.139702 129.353806,73.592346 127.633698,80.136688 
	C135.633743,81.275948 135.247101,81.150337 137.363678,74.635529 
	C139.436371,68.255760 142.408569,62.168240 145.810272,55.869156 
	C146.656570,56.931984 147.502853,57.994808 148.135651,59.675560 
	C148.128006,60.110107 148.120361,60.544651 147.765564,61.638634 
M178.508942,51.669041 
	C174.647049,49.116192 171.162079,50.498329 168.019196,52.963066 
	C162.321609,57.431259 158.997101,68.953224 161.875946,75.642532 
	C162.840332,77.883438 165.273560,80.231544 167.548752,80.989288 
	C170.671768,82.029411 173.717865,80.571945 175.789703,76.962471 
	C176.440460,77.373260 177.255157,77.650574 177.715698,78.216240 
	C181.015381,82.269226 183.928391,82.430176 186.868042,79.512611 
	C183.116379,69.173439 190.227798,60.784157 190.345261,50.166119 
	C187.113876,51.438995 184.466202,52.646679 181.702469,53.460011 
	C180.970169,53.675518 179.880814,52.677673 178.508942,51.669041 
M238.159317,77.887848 
	C239.063400,77.947395 240.414474,77.645172 240.801392,78.123268 
	C244.134323,82.241486 247.011841,82.475098 250.749908,78.745811 
	C245.280304,74.677238 249.737183,70.015480 250.269073,65.800423 
	C250.869232,61.044594 252.696014,56.443562 254.382721,50.355129 
	C249.986526,51.411606 246.934738,52.144997 243.882950,52.878391 
	C243.976822,53.289570 244.070694,53.700748 244.164551,54.111931 
	C243.669907,53.677467 243.175262,53.243000 242.273331,52.185825 
	C237.799713,49.602295 233.808945,49.921604 230.323029,53.757572 
	C224.857391,59.772079 222.834366,66.986641 224.700928,74.916656 
	C226.358994,81.960907 232.230591,83.311714 238.159317,77.887848 
M209.298096,76.587975 
	C209.315704,77.079567 209.333328,77.571152 209.111954,78.683311 
	C209.086411,79.124001 209.060867,79.564697 208.662445,80.623260 
	C206.776459,84.426315 204.890472,88.229362 202.234436,92.017731 
	C201.123886,90.050873 200.195740,87.944595 198.837097,86.167404 
	C197.966858,85.029060 196.366150,83.587410 195.266678,83.720245 
	C194.087570,83.862679 192.071472,85.917183 192.250336,86.739067 
	C192.716019,88.879044 193.710007,91.782532 195.362534,92.579872 
	C197.841675,93.776070 201.063202,93.433693 204.707123,93.809212 
	C209.689301,92.942665 213.547653,90.373489 215.002243,85.475388 
	C218.298553,74.375526 221.249069,63.172977 224.354416,51.960850 
	C215.921646,50.319759 215.927368,50.411514 214.061935,57.530666 
	C212.886307,62.017292 211.323349,66.402420 209.366547,71.288216 
	C207.968628,72.188896 206.570709,73.089577 205.172806,73.990257 
	C204.941513,72.480194 204.269211,70.880371 204.555161,69.475601 
	C205.801163,63.354382 207.325851,57.289886 208.850113,50.773918 
	C204.381348,51.036804 200.159348,51.285172 197.309402,51.452827 
	C197.962387,54.383362 199.081390,56.581875 198.761917,58.546440 
	C198.048782,62.931343 196.102066,67.150665 195.686920,71.534882 
	C195.464142,73.887672 196.723022,77.355316 198.514771,78.626709 
	C200.044266,79.712013 203.335129,78.580605 205.758423,78.036133 
	C207.104248,77.733749 208.268997,76.625557 209.298096,76.587975 
M121.275299,77.934853 
	C117.580750,77.118446 118.956970,74.400940 119.421570,72.363251 
	C121.028389,65.316017 122.860397,58.320141 124.546532,51.546417 
	C119.944595,51.546417 115.616661,51.546417 111.288734,51.546417 
	C116.590149,53.072014 115.006363,56.610371 114.288033,59.875454 
	C113.186058,64.884300 111.737549,69.872055 111.299286,74.943359 
	C111.134865,76.845909 113.083260,80.309074 114.604950,80.647392 
	C116.739960,81.122070 119.375870,79.343796 121.275299,77.934853 
z"/>
<path fill="#000000" opacity="1.000000" stroke="none" 
	d="
M337.000000,55.666668 
	C336.781952,55.255527 336.563873,54.511055 336.672913,53.883293 
	C337.000000,54.444447 337.000000,54.888889 337.000000,55.666668 
z"/>
<path fill="#000000" opacity="1.000000" stroke="none" 
	d="
M337.000000,75.750000 
	C336.828186,75.747002 336.656372,75.494003 336.742279,75.120499 
	C337.000000,75.000000 337.000000,75.500000 337.000000,75.750000 
z"/>
<path fill="#E9EDEF" opacity="1.000000" stroke="none" 
	d="
M66.380013,46.824631 
	C66.666229,48.491989 66.952446,50.159344 66.950768,52.064621 
	C66.499901,65.529198 66.336929,78.755852 66.173958,91.982513 
	C66.155426,94.465813 66.136887,96.949112 66.121124,99.788834 
	C66.147743,100.939308 66.171585,101.733360 66.134911,103.123810 
	C66.662872,104.327080 67.251335,104.933975 67.839806,105.540863 
	C67.535919,108.223831 67.232025,110.906799 66.984276,113.477631 
	C60.697094,120.180435 52.586411,123.971931 43.697300,125.568771 
	C32.614555,127.559677 22.103447,125.709579 13.319367,117.916695 
	C5.766644,111.216232 3.773529,101.803284 8.186942,94.138763 
	C11.409654,88.542068 12.244749,88.291031 16.141577,90.523201 
	C18.351814,96.121521 20.118593,100.596603 21.885372,105.071686 
	C22.335335,105.027504 22.785299,104.983330 23.235262,104.939148 
	C22.880238,102.121819 22.525213,99.304482 22.150579,96.331551 
	C23.066122,95.860947 24.401770,95.174416 25.800253,94.455582 
	C27.610773,98.786110 30.090492,101.896400 35.231762,101.048584 
	C39.331810,100.372475 42.560806,96.510895 43.063873,91.240822 
	C43.674522,84.843788 42.722118,78.908417 36.925163,74.463074 
	C34.794502,71.795143 32.751530,69.445534 30.456915,66.873840 
	C28.865860,64.180321 27.198772,61.827396 26.253452,59.213440 
	C24.111574,53.290833 23.808741,47.490826 28.837563,42.583141 
	C34.480091,37.076538 43.203823,35.500835 50.525692,38.644260 
	C51.288620,38.971794 52.226433,38.891983 53.083099,39.001171 
	C53.077156,38.404797 53.071209,37.808418 53.065266,37.212044 
	C43.980534,31.781517 35.317692,34.625870 26.383863,40.033665 
	C26.495008,37.955494 26.534437,35.737164 27.662428,34.579437 
	C34.335739,27.730186 42.896023,30.333235 51.011391,29.949148 
	C44.291016,26.333298 37.244736,27.292622 28.934250,29.236055 
	C35.555271,21.946115 43.034561,24.518047 50.069962,25.120718 
	C50.077225,24.628727 50.084488,24.136736 50.091751,23.644745 
	C46.181725,22.200235 42.271698,20.755726 38.275803,19.279493 
	C39.040524,17.314491 39.802959,15.355367 40.326103,14.011119 
	C49.261856,14.011119 57.666245,14.011119 66.036980,14.418917 
	C66.047661,18.735931 66.091995,22.645149 66.063530,26.761410 
	C65.942001,27.269516 65.991074,27.553692 66.077995,28.089531 
	C66.076401,29.219179 66.134766,30.080273 66.119873,31.090137 
	C65.999390,31.469839 66.044426,31.681101 66.101654,32.178223 
	C66.068298,34.320824 66.115036,36.157887 66.089828,38.429573 
	C66.284454,41.102547 66.551041,43.340900 66.559113,45.661186 
	C66.251289,45.869972 66.140625,46.010548 66.165291,46.120872 
	C66.218475,46.358814 66.341194,46.581211 66.416016,46.802177 
	C66.396568,46.794384 66.380013,46.824631 66.380013,46.824631 
M45.732353,43.096222 
	C42.580051,43.096222 39.427750,43.096222 36.133080,43.096222 
	C35.879276,44.413620 35.634869,45.682270 35.286495,47.490547 
	C39.279724,48.596939 43.210323,49.685978 47.140923,50.775017 
	C47.600754,50.310516 48.060585,49.846020 48.520420,49.381519 
	C47.857136,47.349968 47.193851,45.318420 45.732353,43.096222 
z"/>
<path fill="#107DB9" opacity="1.000000" stroke="none" 
	d="
M66.070633,14.011119 
	C57.666245,14.011119 49.261856,14.011119 40.326103,14.011119 
	C39.802959,15.355367 39.040524,17.314491 38.275803,19.279493 
	C42.271698,20.755726 46.181725,22.200235 50.091751,23.644745 
	C50.084488,24.136736 50.077225,24.628727 50.069962,25.120718 
	C43.034561,24.518047 35.555271,21.946115 28.934250,29.236055 
	C37.244736,27.292622 44.291016,26.333298 51.011391,29.949148 
	C42.896023,30.333235 34.335739,27.730186 27.662428,34.579437 
	C26.534437,35.737164 26.495008,37.955494 26.383863,40.033665 
	C35.317692,34.625870 43.980534,31.781517 53.065266,37.212044 
	C53.071209,37.808418 53.077156,38.404797 53.083099,39.001171 
	C52.226433,38.891983 51.288620,38.971794 50.525692,38.644260 
	C43.203823,35.500835 34.480091,37.076538 28.837563,42.583141 
	C23.808741,47.490826 24.111574,53.290833 26.253452,59.213440 
	C27.198772,61.827396 28.865860,64.180321 30.577059,67.237396 
	C30.647537,68.841431 30.346231,69.859840 29.896717,70.576942 
	C27.458221,66.180359 25.167938,62.085072 22.883236,57.655525 
	C22.653620,56.967648 22.418421,56.614033 22.325817,55.881882 
	C22.230928,53.340614 21.993441,51.177883 21.610769,48.731972 
	C20.645323,48.305962 19.825058,48.163139 18.642128,47.880829 
	C17.516560,47.773586 16.753660,47.805836 15.707427,47.894901 
	C15.561479,48.441109 15.698862,48.930492 15.838341,49.587898 
	C15.840436,49.755917 16.065416,50.005566 16.062578,50.255634 
	C16.120173,50.661087 16.180603,50.816475 16.214809,51.435738 
	C16.134586,55.268497 16.080584,58.637375 15.998302,62.377914 
	C16.009384,63.493683 16.048744,64.237785 15.893547,65.256287 
	C15.456407,69.329033 18.318626,70.515419 21.256214,71.847000 
	C21.501587,71.849174 21.947927,71.645142 22.371494,71.659889 
	C24.205963,71.700272 25.616863,71.725899 27.230274,71.907288 
	C27.591221,72.125557 27.749657,72.188072 27.884359,72.404510 
	C27.860624,72.558434 27.929377,72.862251 27.663624,73.148773 
	C26.746273,78.244736 26.094677,83.054169 25.457811,87.754875 
	C27.699329,88.641739 29.211096,89.239868 30.935549,89.922157 
	C31.902462,88.858833 32.845623,87.821640 34.317787,86.202690 
	C35.724636,89.840500 36.906967,92.897758 38.227543,96.312485 
	C42.189598,89.467697 41.538033,82.646027 36.541142,77.721512 
	C34.953011,76.156387 33.935139,75.314247 37.012856,74.781395 
	C42.722118,78.908417 43.674522,84.843788 43.063873,91.240822 
	C42.560806,96.510895 39.331810,100.372475 35.231762,101.048584 
	C30.090492,101.896400 27.610773,98.786110 25.800253,94.455582 
	C24.401770,95.174416 23.066122,95.860947 22.150579,96.331551 
	C22.525213,99.304482 22.880238,102.121819 23.235262,104.939148 
	C22.785299,104.983330 22.335335,105.027504 21.885372,105.071686 
	C20.118593,100.596603 18.351814,96.121521 16.141577,90.523201 
	C12.244749,88.291031 11.409654,88.542068 8.186942,94.138763 
	C3.773529,101.803284 5.766644,111.216232 13.319367,117.916695 
	C22.103447,125.709579 32.614555,127.559677 43.697300,125.568771 
	C52.586411,123.971931 60.697094,120.180435 67.329834,113.733292 
	C67.442390,115.175987 67.662865,116.732468 67.029976,117.254616 
	C54.583763,127.522926 36.016014,133.298141 19.518017,125.101219 
	C8.790383,119.771255 2.866829,111.602829 3.016997,98.972679 
	C3.357729,70.314682 3.137484,41.650024 3.350699,12.397968 
	C3.756555,11.607048 3.922855,11.381091 4.054989,11.129989 
	C24.436808,11.078384 44.818760,10.990924 65.200096,11.067840 
	C66.372978,11.072266 67.540817,12.415506 68.329773,13.545345 
	C67.322578,13.973720 66.696609,13.992419 66.070633,14.011119 
M28.944357,92.400513 
	C28.758741,92.766983 28.573128,93.133461 28.522488,94.203865 
	C31.031517,98.985458 31.526901,99.231163 35.798115,97.696877 
	C35.110832,95.718636 34.423065,93.738991 33.786999,91.908165 
	C32.128578,92.244934 30.633177,92.548599 28.944357,92.400513 
M9.451528,43.780281 
	C12.735174,44.248035 16.093439,44.427509 19.284374,45.253445 
	C23.690222,46.393841 25.161314,45.504723 24.040249,40.706577 
	C22.857462,35.644276 26.997482,25.529230 31.225409,23.899153 
	C36.434143,21.890924 35.822262,17.567381 37.158817,13.587658 
	C26.508940,13.587658 16.416677,13.587658 6.314167,13.587658 
	C6.314167,39.638546 6.314167,65.374649 6.314167,91.945526 
	C8.196535,89.687531 9.459767,88.172218 10.563396,86.848358 
	C7.568470,79.092918 4.938163,71.719223 12.586050,65.315224 
	C12.925416,65.031052 13.189404,64.413597 13.162261,63.971416 
	C12.743140,57.143673 15.783717,49.539173 8.730041,44.196800 
	C8.730041,44.196800 8.664227,44.226788 9.451528,43.780281 
M17.885685,76.730865 
	C18.311121,72.174637 15.562837,70.303993 11.363497,68.992996 
	C10.934077,71.415222 10.347044,73.494194 10.233644,75.598671 
	C9.901751,81.758018 12.748346,86.457924 17.394197,88.021446 
	C21.195381,89.300705 23.269855,87.827835 23.562719,84.043297 
	C23.811693,80.825943 23.614122,77.574036 23.614122,74.337418 
	C23.207405,74.152573 22.800688,73.967728 22.393970,73.782875 
	C21.234133,75.917877 20.074293,78.052872 18.512144,80.928429 
	C18.170843,79.283058 17.994373,78.432320 17.885685,76.730865 
z"/>
<path fill="#0092D2" opacity="1.000000" stroke="none" 
	d="
M68.976013,25.420723 
	C143.510483,25.429213 218.044968,25.435129 292.579437,25.456102 
	C295.404083,25.456898 298.228638,25.603436 301.666962,25.884655 
	C302.280670,26.087250 302.757294,26.141819 302.757294,26.141819 
	C304.247437,26.381538 305.737579,26.621260 307.617981,27.302830 
	C308.014221,27.960621 308.020203,28.176567 307.556885,28.313473 
	C302.434052,28.125164 297.780609,27.923651 293.127014,27.920401 
	C218.449982,27.868279 143.772949,27.841433 69.077713,27.527266 
	C69.065880,26.869549 69.072250,26.493402 69.088425,25.937901 
	C69.098221,25.758543 68.976013,25.420723 68.976013,25.420723 
z"/>
<path fill="#0073B9" opacity="1.000000" stroke="none" 
	d="
M322.058563,33.989117 
	C322.388306,34.005043 322.664978,34.134430 323.026672,34.921631 
	C323.778961,36.642532 324.393158,37.819080 324.651886,39.207245 
	C322.832184,39.611961 321.368164,39.970455 319.903625,39.972641 
	C304.824402,39.995152 289.745117,39.960014 274.668640,39.564590 
	C274.822113,38.452354 274.972809,37.716473 275.566345,36.984261 
	C289.482117,36.923450 302.956329,36.926250 316.425873,36.677578 
	C317.611938,36.655685 318.767670,34.988750 320.290894,34.068893 
	C321.115753,34.030975 321.587158,34.010044 322.058563,33.989117 
z"/>
<path fill="#0186C9" opacity="1.000000" stroke="none" 
	d="
M332.062042,45.663708 
	C312.687897,46.005146 293.344574,46.007286 273.498718,45.685749 
	C273.320343,44.577370 273.644562,43.792675 274.439423,43.006580 
	C290.538177,43.003666 306.166595,43.047554 321.794189,42.953403 
	C324.238190,42.938686 326.678436,42.296036 329.120422,41.943741 
	C330.111237,43.070629 331.102081,44.197521 332.062042,45.663708 
z"/>
<path fill="#017DC1" opacity="1.000000" stroke="none" 
	d="
M329.069519,41.639069 
	C326.678436,42.296036 324.238190,42.938686 321.794189,42.953403 
	C306.166595,43.047554 290.538177,43.003666 274.403534,42.682598 
	C274.153290,41.553658 274.409576,40.747303 274.665833,39.940945 
	C289.745117,39.960014 304.824402,39.995152 319.903625,39.972641 
	C321.368164,39.970455 322.832184,39.611961 325.043274,39.191536 
	C326.311676,38.933483 326.833252,38.902760 327.354797,38.872032 
	C327.909393,39.692822 328.463989,40.513611 329.069519,41.639069 
z"/>
<path fill="#0083C0" opacity="1.000000" stroke="none" 
	d="
M321.876404,33.702518 
	C321.587158,34.010044 321.115753,34.030975 319.987213,33.895638 
	C316.881897,32.829712 314.433716,31.920053 311.754578,30.807554 
	C310.357819,29.867315 309.192017,29.129919 308.026184,28.392517 
	C308.020203,28.176567 308.014221,27.960621 307.997772,27.420803 
	C312.556274,29.203260 317.125244,31.309591 321.876404,33.702518 
z"/>
<path fill="#0074B2" opacity="1.000000" stroke="none" 
	d="
M68.920532,24.935991 
	C68.976013,25.420723 69.098221,25.758543 68.592712,25.977570 
	C67.436913,26.315853 66.786621,26.435110 66.136322,26.554367 
	C66.091995,22.645149 66.047661,18.735931 66.036980,14.418917 
	C66.696609,13.992419 67.322578,13.973720 68.261673,13.950489 
	C68.671547,17.447727 68.768295,20.949493 68.920532,24.935991 
z"/>
<path fill="#0083C0" opacity="1.000000" stroke="none" 
	d="
M327.207245,38.572800 
	C326.833252,38.902760 326.311676,38.933483 325.398743,38.979919 
	C324.393158,37.819080 323.778961,36.642532 323.122284,35.135185 
	C324.406433,35.960777 325.733063,37.117172 327.207245,38.572800 
z"/>
<path fill="#00628D" opacity="1.000000" stroke="none" 
	d="
M68.217491,105.505852 
	C67.251335,104.933975 66.662872,104.327080 66.536690,103.277397 
	C67.270691,102.926994 67.542397,103.019386 67.814095,103.111778 
	C68.171143,103.523071 68.528198,103.934364 68.968292,104.605179 
	C68.899284,105.066750 68.747231,105.268791 68.217491,105.505852 
z"/>
<path fill="#005684" opacity="1.000000" stroke="none" 
	d="
M302.725616,25.989355 
	C302.757294,26.141819 302.280670,26.087250 302.075317,25.963127 
	C302.136444,25.602808 302.411102,25.602104 302.725616,25.989355 
z"/>
<path fill="#005684" opacity="1.000000" stroke="none" 
	d="
M3.797052,11.148128 
	C3.922855,11.381091 3.756555,11.607048 3.387306,11.934525 
	C3.325385,11.762880 3.432250,11.464573 3.797052,11.148128 
z"/>
<path fill="#E2EAEF" opacity="1.000000" stroke="none" 
	d="
M274.668640,39.564590 
	C274.409576,40.747303 274.153290,41.553658 273.932922,42.683994 
	C273.644562,43.792675 273.320343,44.577370 273.034637,45.686157 
	C271.666016,51.105957 270.258911,56.201664 268.521149,62.494801 
	C270.356995,60.849148 271.271301,60.029545 272.868164,59.111023 
	C273.821045,59.051056 274.091431,59.090004 274.361816,59.128952 
	C276.534973,64.556648 278.708130,69.984337 281.197266,76.201241 
	C283.313995,74.200394 284.311493,73.257492 286.169434,71.501274 
	C285.616364,73.720726 285.687439,75.248764 284.958160,76.006752 
	C283.101959,77.936012 280.958466,80.767479 278.797241,80.889587 
	C276.680176,81.009209 273.881348,78.630699 272.324127,76.619110 
	C270.463928,74.216156 269.604767,71.038284 267.722046,66.899071 
	C266.885529,70.145111 266.308441,72.237320 265.809418,74.348007 
	C264.148254,81.374458 263.705170,81.648590 256.093964,79.924049 
	C258.810760,68.992233 261.526825,58.063251 264.251343,46.698784 
	C264.259796,46.263298 264.193481,46.217682 264.451569,45.909248 
	C264.638947,43.029476 267.168457,39.455128 262.125427,38.539757 
	C262.207886,37.899044 262.256897,37.533310 262.737122,37.154514 
	C267.153442,37.087833 271.138458,37.034210 275.123505,36.980587 
	C274.972809,37.716473 274.822113,38.452354 274.668640,39.564590 
z"/>
<path fill="#0086CA" opacity="1.000000" stroke="none" 
	d="
M264.243683,46.300179 
	C255.086884,46.270180 245.946182,46.207687 236.805542,46.134323 
	C232.997772,46.103764 229.190247,46.016773 225.382538,46.012077 
	C192.117172,45.971054 158.851791,45.942863 125.226913,45.581703 
	C125.290092,44.496674 125.712784,43.740803 126.595367,42.989525 
	C133.550842,42.996334 140.046417,43.000313 146.542007,43.000465 
	C183.683456,43.001335 220.824921,42.993160 257.966370,43.019291 
	C260.524811,43.021091 263.587738,42.299507 264.193481,46.217682 
	C264.193481,46.217682 264.259796,46.263298 264.243683,46.300179 
z"/>
<path fill="#E5ECF0" opacity="1.000000" stroke="none" 
	d="
M95.146461,70.209961 
	C93.864586,72.709694 92.884666,75.440598 91.204407,77.635338 
	C89.882416,79.362114 87.696426,80.427422 85.894226,81.786552 
	C85.400795,81.419769 84.907372,81.052994 84.413940,80.686211 
	C83.827255,68.971222 83.240562,57.256233 82.458084,44.854427 
	C81.662598,43.406937 81.062920,42.646263 80.300751,41.637470 
	C79.768593,41.293789 79.398918,41.198227 78.844879,41.010021 
	C78.660515,40.917377 78.249474,40.880836 78.234550,40.590443 
	C78.251259,39.913258 78.282890,39.526470 78.762177,39.120193 
	C84.823578,39.390747 90.437325,39.680786 95.817001,40.266060 
	C92.132858,40.903793 91.380653,42.981575 92.011070,46.460899 
	C91.959358,52.986599 91.884140,59.051914 92.087433,65.107880 
	C92.129860,66.371819 93.201202,67.601212 94.046295,69.049828 
	C94.578285,69.572075 94.862373,69.891022 95.146461,70.209961 
z"/>
<path fill="#E3EBEF" opacity="1.000000" stroke="none" 
	d="
M209.934113,70.833076 
	C211.323349,66.402420 212.886307,62.017292 214.061935,57.530666 
	C215.927368,50.411514 215.921646,50.319759 224.354416,51.960850 
	C221.249069,63.172977 218.298553,74.375526 215.002243,85.475388 
	C213.547653,90.373489 209.689301,92.942665 204.214508,93.564850 
	C203.482758,92.891136 203.243622,92.461777 203.004486,92.032410 
	C204.890472,88.229362 206.776459,84.426315 208.995819,80.153229 
	C209.336426,79.143044 209.343674,78.602890 209.350937,78.062744 
	C209.333328,77.571152 209.315704,77.079567 209.658173,76.086487 
	C209.990219,74.001022 209.962173,72.417053 209.934113,70.833076 
z"/>
<path fill="#DFEAEF" opacity="1.000000" stroke="none" 
	d="
M209.650330,71.060646 
	C209.962173,72.417053 209.990219,74.001022 209.766815,75.732773 
	C208.268997,76.625557 207.104248,77.733749 205.758423,78.036133 
	C203.335129,78.580605 200.044266,79.712013 198.514771,78.626709 
	C196.723022,77.355316 195.464142,73.887672 195.686920,71.534882 
	C196.102066,67.150665 198.048782,62.931343 198.761917,58.546440 
	C199.081390,56.581875 197.962387,54.383362 197.309402,51.452827 
	C200.159348,51.285172 204.381348,51.036804 208.850113,50.773918 
	C207.325851,57.289886 205.801163,63.354382 204.555161,69.475601 
	C204.269211,70.880371 204.941513,72.480194 205.172791,73.990250 
	C206.570709,73.089577 207.968628,72.188896 209.650330,71.060646 
z"/>
<path fill="#DDE9EF" opacity="1.000000" stroke="none" 
	d="
M144.985962,55.952446 
	C142.408569,62.168240 139.436371,68.255760 137.363678,74.635529 
	C135.247101,81.150337 135.633743,81.275948 127.633698,80.136688 
	C129.353806,73.592346 131.214447,67.139702 132.698135,60.601501 
	C133.428802,57.381611 134.875916,53.451157 129.470932,51.557049 
	C133.625168,51.329544 137.779404,51.102039 142.282501,50.855431 
	C142.282501,52.038128 142.282501,53.086300 142.282501,54.603271 
	C143.211609,54.068268 143.845917,53.703026 144.752228,53.591232 
	C145.011490,54.547268 144.998718,55.249859 144.985962,55.952446 
z"/>
<path fill="#DFEAEF" opacity="1.000000" stroke="none" 
	d="
M242.680618,52.808537 
	C243.175262,53.243000 243.669907,53.677467 244.164551,54.111931 
	C244.070694,53.700748 243.976822,53.289570 243.882950,52.878391 
	C246.934738,52.144997 249.986526,51.411606 254.382721,50.355129 
	C252.696014,56.443562 250.869232,61.044594 250.269073,65.800423 
	C249.737183,70.015480 245.280304,74.677238 250.749908,78.745811 
	C247.011841,82.475098 244.134323,82.241486 240.801392,78.123268 
	C240.414474,77.645172 239.063400,77.947395 237.545242,77.999588 
	C235.951416,77.907570 234.971664,77.703812 234.365158,77.425964 
	C240.001053,74.601799 245.084000,61.019608 242.446320,55.894005 
	C241.931122,54.892860 239.610962,54.820572 238.424011,54.047081 
	C240.043350,53.452377 241.361984,53.130459 242.680618,52.808537 
z"/>
<path fill="#DEE9EF" opacity="1.000000" stroke="none" 
	d="
M178.955399,52.236954 
	C179.880814,52.677673 180.970169,53.675518 181.702469,53.460011 
	C184.466202,52.646679 187.113876,51.438995 190.345261,50.166119 
	C190.227798,60.784157 183.116379,69.173439 186.868042,79.512611 
	C183.928391,82.430176 181.015381,82.269226 177.715698,78.216240 
	C177.255157,77.650574 176.440460,77.373260 175.090179,76.957947 
	C174.165283,76.925201 173.939911,76.896988 173.884430,76.559036 
	C178.701431,69.566971 180.919098,62.348015 178.931473,53.871788 
	C178.943848,53.108887 178.949615,52.672920 178.955399,52.236954 
z"/>
<path fill="#DEE9EF" opacity="1.000000" stroke="none" 
	d="
M305.942810,52.273712 
	C306.749969,52.707737 307.722748,53.674953 308.335938,53.484478 
	C311.148834,52.610672 313.861176,51.413105 317.448120,50.001862 
	C316.974640,60.671623 310.408508,69.151512 313.720001,79.613556 
	C310.999298,82.439911 307.916077,82.320129 304.649384,78.263924 
	C304.190063,77.693565 303.416351,77.376396 302.079651,76.943817 
	C301.140076,76.914177 300.909058,76.882744 300.849609,76.539368 
	C305.559662,69.539528 307.915833,62.366413 305.920105,53.899155 
	C305.931946,53.140636 305.937378,52.707176 305.942810,52.273712 
z"/>
<path fill="#E5ECF0" opacity="1.000000" stroke="none" 
	d="
M145.398117,55.910801 
	C144.998718,55.249859 145.011490,54.547268 145.030396,53.493378 
	C147.838211,50.625187 151.503021,48.734627 154.312012,51.562286 
	C156.210709,53.473618 156.881210,57.529518 156.584167,60.473099 
	C156.175568,64.522179 154.065216,68.370926 153.225403,72.417870 
	C152.839294,74.278427 153.740112,76.406052 154.057358,78.412575 
	C154.655563,78.796356 155.253754,79.180138 155.851959,79.563919 
	C153.613083,80.060234 150.942566,81.539825 149.248108,80.795975 
	C147.272537,79.928719 144.828079,77.052994 144.920792,75.163284 
	C145.143738,70.619476 146.729568,66.142548 148.078278,61.145592 
	C148.377029,60.120911 148.363083,59.589272 148.349152,59.057632 
	C147.502853,57.994808 146.656570,56.931984 145.398117,55.910801 
z"/>
<path fill="#E3ECF0" opacity="1.000000" stroke="none" 
	d="
M173.714539,76.868774 
	C173.939911,76.896988 174.165283,76.925201 174.728943,76.993523 
	C173.717865,80.571945 170.671768,82.029411 167.548752,80.989288 
	C165.273560,80.231544 162.840332,77.883438 161.875946,75.642532 
	C158.997101,68.953224 162.321609,57.431259 168.019196,52.963066 
	C171.162079,50.498329 174.647049,49.116192 178.732178,51.952995 
	C178.949615,52.672920 178.943848,53.108887 178.568649,53.776245 
	C177.456451,53.926937 176.713669,53.846245 175.831421,53.737389 
	C175.387924,53.750778 175.182800,53.920547 174.917419,54.524315 
	C172.829483,60.720085 170.677277,66.552551 169.135040,72.542076 
	C168.766937,73.971733 170.434219,75.925484 171.251526,77.672195 
	C171.528061,77.740173 171.703888,77.702469 172.152069,77.422043 
	C172.864120,77.123589 173.289337,76.996185 173.714539,76.868774 
z"/>
<path fill="#E4ECF0" opacity="1.000000" stroke="none" 
	d="
M305.720642,51.988594 
	C305.937378,52.707176 305.931946,53.140636 305.558441,53.801262 
	C304.450134,53.933578 303.709961,53.838737 302.830933,53.714066 
	C302.388031,53.718449 302.177704,53.881584 301.902527,54.478935 
	C299.812592,60.705261 297.658264,66.569115 296.114868,72.589592 
	C295.752472,74.003273 297.454285,75.946144 298.419556,77.725319 
	C299.083862,77.865280 299.535034,77.925484 300.162415,78.155609 
	C300.338623,78.325531 300.712494,78.641602 300.712494,78.641602 
	C296.035645,82.881065 291.256226,81.941963 288.938354,76.328102 
	C286.010345,69.236504 289.200867,57.150349 295.352325,52.661758 
	C298.455566,50.397396 301.851654,49.193153 305.720642,51.988594 
z"/>
<path fill="#E1EAEF" opacity="1.000000" stroke="none" 
	d="
M121.536415,78.232018 
	C119.375870,79.343796 116.739960,81.122070 114.604950,80.647392 
	C113.083260,80.309074 111.134865,76.845909 111.299286,74.943359 
	C111.737549,69.872055 113.186058,64.884300 114.288033,59.875454 
	C115.006363,56.610371 116.590149,53.072014 111.288734,51.546417 
	C115.616661,51.546417 119.944595,51.546417 124.546532,51.546417 
	C122.860397,58.320141 121.028389,65.316017 119.421570,72.363251 
	C118.956970,74.400940 117.580750,77.118446 121.536415,78.232018 
z"/>
<path fill="#E3EBEF" opacity="1.000000" stroke="none" 
	d="
M233.991913,77.500061 
	C234.971664,77.703812 235.951416,77.907570 237.307770,78.150467 
	C232.230591,83.311714 226.358994,81.960907 224.700928,74.916656 
	C222.834366,66.986641 224.857391,59.772079 230.323029,53.757572 
	C233.808945,49.921604 237.799713,49.602295 242.476974,52.497181 
	C241.361984,53.130459 240.043350,53.452377 238.273895,54.353500 
	C235.959656,60.671780 233.877762,66.354782 232.380539,72.187859 
	C231.987305,73.719795 233.405548,75.716690 233.991913,77.500061 
z"/>
<path fill="#0074B2" opacity="1.000000" stroke="none" 
	d="
M66.662735,91.862762 
	C66.336929,78.755852 66.499901,65.529198 67.149055,52.358788 
	C68.063202,54.149540 68.839531,55.879665 68.861397,57.619274 
	C68.984146,67.386223 69.005562,77.156754 68.848358,86.922630 
	C68.822350,88.538109 67.743713,90.136642 66.662735,91.862762 
z"/>
<path fill="#D9E8F0" opacity="1.000000" stroke="none" 
	d="
M202.619446,92.025070 
	C203.243622,92.461777 203.482758,92.891136 203.845459,93.533043 
	C201.063202,93.433693 197.841675,93.776070 195.362534,92.579872 
	C193.710007,91.782532 192.716019,88.879044 192.250336,86.739067 
	C192.071472,85.917183 194.087570,83.862679 195.266678,83.720245 
	C196.366150,83.587410 197.966858,85.029060 198.837097,86.167404 
	C200.195740,87.944595 201.123886,90.050873 202.619446,92.025070 
z"/>
<path fill="#E0ECF2" opacity="1.000000" stroke="none" 
	d="
M274.659302,58.985008 
	C274.091431,59.090004 273.821045,59.051056 273.145264,58.952713 
	C275.152618,56.521530 277.461884,54.030716 280.010223,51.814880 
	C282.123627,49.977261 285.068848,49.485806 286.294189,52.209465 
	C287.040222,53.867744 285.536133,56.538307 285.042786,58.754173 
	C283.084839,58.296062 281.126923,57.837952 279.168976,57.379837 
	C279.110382,56.799992 279.051758,56.220142 278.993164,55.640297 
	C277.647705,56.707218 276.302277,57.774143 274.659302,58.985008 
z"/>
<path fill="#DDE7EE" opacity="1.000000" stroke="none" 
	d="
M126.135483,42.984932 
	C125.712784,43.740803 125.290092,44.496674 124.734100,45.550076 
	C122.846657,46.028477 121.092506,46.209347 118.916595,45.894440 
	C117.970085,43.929703 117.445320,42.460747 117.024658,40.691483 
	C117.769791,39.306149 118.410828,38.221123 119.432320,37.073265 
	C121.314819,37.098999 122.816849,37.187565 124.474503,37.561115 
	C125.118660,38.562576 125.607216,39.279053 126.061676,40.368912 
	C126.063553,41.489845 126.099518,42.237389 126.135483,42.984932 
z"/>
<path fill="#0286C9" opacity="1.000000" stroke="none" 
	d="
M78.249474,40.880836 
	C78.249474,40.880836 78.660515,40.917377 79.065186,41.171932 
	C79.800987,41.579521 80.132111,41.732555 80.463234,41.885590 
	C81.062920,42.646263 81.662598,43.406937 82.249611,44.482140 
	C77.354813,45.557343 72.472679,46.318008 66.985283,46.951653 
	C66.380013,46.824631 66.396568,46.794384 67.026459,46.635757 
	C69.380074,41.190666 74.385010,42.115147 78.249474,40.880836 
z"/>
<path fill="#D9E9F3" opacity="1.000000" stroke="none" 
	d="
M108.832726,45.923164 
	C107.402977,48.462814 105.973228,51.002468 103.840889,53.702347 
	C102.841911,53.808914 102.545525,53.755264 102.382431,53.364525 
	C103.589676,50.693375 104.663620,48.359314 105.888962,45.690498 
	C108.487564,42.253448 105.562576,41.370590 104.097282,39.666763 
	C107.689857,39.581299 111.011475,39.825706 114.097046,40.324776 
	C112.184906,42.360676 110.508820,44.141918 108.832726,45.923164 
z"/>
<path fill="#C2E1F1" opacity="1.000000" stroke="none" 
	d="
M102.249130,53.701614 
	C102.545525,53.755264 102.841911,53.808914 103.583717,53.938332 
	C101.250443,59.273895 98.471764,64.533699 95.419769,70.001732 
	C94.862373,69.891022 94.578285,69.572075 94.139084,68.709717 
	C96.739029,63.344738 99.494080,58.523174 102.249130,53.701614 
z"/>
<path fill="#0C88C8" opacity="1.000000" stroke="none" 
	d="
M109.290489,45.938652 
	C110.508820,44.141918 112.184906,42.360676 114.345596,40.446419 
	C115.526985,40.539528 116.223770,40.765656 116.920563,40.991787 
	C117.445320,42.460747 117.970085,43.929703 118.624802,45.709892 
	C115.752594,45.998798 112.750420,45.976471 109.290489,45.938652 
z"/>
<path fill="#E4ECF0" opacity="1.000000" stroke="none" 
	d="
M300.678009,76.851318 
	C300.909058,76.882744 301.140076,76.914177 301.718262,76.987854 
	C301.750946,77.450981 301.436493,77.871872 300.917297,78.467178 
	C300.712494,78.641602 300.338623,78.325531 300.170776,77.957062 
	C300.002960,77.588593 300.007599,77.190857 300.150085,77.056351 
	C300.292542,76.921837 300.678009,76.851318 300.678009,76.851318 
z"/>
<path fill="#DFEAEF" opacity="1.000000" stroke="none" 
	d="
M209.231445,78.373032 
	C209.343674,78.602890 209.336426,79.143044 209.182251,79.844284 
	C209.060867,79.564697 209.086411,79.124001 209.231445,78.373032 
z"/>
<path fill="#DDE9EF" opacity="1.000000" stroke="none" 
	d="
M148.242401,59.366596 
	C148.363083,59.589272 148.377029,60.120911 148.251846,60.815872 
	C148.120361,60.544651 148.128006,60.110107 148.242401,59.366596 
z"/>
<path fill="#0074B2" opacity="1.000000" stroke="none" 
	d="
M67.791733,102.537811 
	C67.542397,103.019386 67.270691,102.926994 66.597198,102.681015 
	C66.171585,101.733360 66.147743,100.939308 66.453880,100.025131 
	C67.112366,100.591286 67.440872,101.277565 67.791733,102.537811 
z"/>
<path fill="#0060AB" opacity="1.000000" stroke="none" 
	d="
M307.556885,28.313477 
	C309.192017,29.129919 310.357819,29.867315 311.400757,31.017090 
	C308.972351,31.619932 306.666840,31.976036 304.361237,31.976894 
	C225.907043,32.006046 147.452850,32.001480 68.294853,31.960316 
	C67.121277,31.903461 66.651505,31.888077 66.181740,31.872692 
	C66.044426,31.681101 65.999390,31.469839 66.546707,30.684381 
	C67.371841,29.421312 67.696907,28.712769 68.291573,27.961510 
	C68.739418,27.882141 68.917671,27.845490 69.095924,27.808838 
	C143.772949,27.841433 218.449982,27.868279 293.127014,27.920401 
	C297.780609,27.923651 302.434052,28.125164 307.556885,28.313477 
z"/>
<path fill="#DFE8EE" opacity="1.000000" stroke="none" 
	d="
M30.044930,70.878242 
	C30.346231,69.859840 30.647537,68.841431 30.828699,67.459480 
	C32.751530,69.445534 34.794502,71.795143 36.925163,74.463074 
	C33.935139,75.314247 34.953011,76.156387 36.541142,77.721512 
	C41.538033,82.646027 42.189598,89.467697 38.227543,96.312485 
	C36.906967,92.897758 35.724636,89.840500 34.317787,86.202690 
	C32.845623,87.821640 31.902462,88.858833 30.935549,89.922157 
	C29.211096,89.239868 27.699329,88.641739 25.457811,87.754875 
	C26.094677,83.054169 26.746273,78.244736 27.772671,73.396942 
	C28.779957,72.531799 29.412443,71.705025 30.044930,70.878242 
z"/>
<path fill="#0070B5" opacity="1.000000" stroke="none" 
	d="
M66.101654,32.178223 
	C66.651505,31.888077 67.121277,31.903461 68.344238,32.337017 
	C71.234863,33.834587 73.365326,35.827435 75.510864,35.843796 
	C88.554283,35.943249 101.600853,35.535442 114.647224,35.471809 
	C116.112694,35.464657 117.583519,36.554802 119.051857,37.136097 
	C118.410828,38.221123 117.769791,39.306149 117.024658,40.691483 
	C116.223770,40.765656 115.526985,40.539528 114.581642,40.191757 
	C111.011475,39.825706 107.689857,39.581299 103.666946,39.666737 
	C100.660797,39.987995 98.355942,39.979412 96.051079,39.970825 
	C90.437325,39.680786 84.823578,39.390747 78.299561,39.098030 
	C73.936249,38.735470 70.483185,38.375591 66.813057,38.009651 
	C66.595985,38.003586 66.161774,37.994953 66.161774,37.994953 
	C66.115036,36.157887 66.068298,34.320824 66.101654,32.178223 
z"/>
<path fill="#147FB6" opacity="1.000000" stroke="none" 
	d="
M46.131462,43.191544 
	C47.193851,45.318420 47.857136,47.349968 48.520420,49.381519 
	C48.060585,49.846020 47.600754,50.310516 47.140923,50.775017 
	C43.210323,49.685978 39.279724,48.596939 35.286495,47.490547 
	C35.634869,45.682270 35.879276,44.413620 36.133080,43.096222 
	C39.427750,43.096222 42.580051,43.096222 46.131462,43.191544 
z"/>
<path fill="#107DB9" opacity="1.000000" stroke="none" 
	d="
M67.030128,38.015713 
	C70.483185,38.375591 73.936249,38.735470 77.851913,39.117516 
	C78.282890,39.526470 78.251259,39.913258 78.234550,40.590443 
	C74.385010,42.115147 69.380074,41.190666 67.045898,46.643555 
	C66.341194,46.581211 66.218475,46.358814 66.165291,46.120872 
	C66.140625,46.010548 66.251289,45.869972 66.596962,45.185242 
	C66.938927,42.423485 66.984528,40.219601 67.030128,38.015713 
z"/>
<path fill="#0074B2" opacity="1.000000" stroke="none" 
	d="
M66.813057,38.009651 
	C66.984528,40.219601 66.938927,42.423485 66.855476,45.103317 
	C66.551041,43.340900 66.284454,41.102547 66.089828,38.429573 
	C66.161774,37.994953 66.595985,38.003586 66.813057,38.009651 
z"/>
<path fill="#107DB9" opacity="1.000000" stroke="none" 
	d="
M69.077713,27.527267 
	C68.917671,27.845490 68.739418,27.882141 67.820724,27.912821 
	C66.766167,27.878225 66.452065,27.849600 66.137962,27.820974 
	C65.991074,27.553692 65.942001,27.269516 66.063538,26.761410 
	C66.786621,26.435110 67.436913,26.315853 68.582916,26.156927 
	C69.072250,26.493402 69.065880,26.869549 69.077713,27.527267 
z"/>
<path fill="#0070B5" opacity="1.000000" stroke="none" 
	d="
M66.077995,28.089531 
	C66.452065,27.849600 66.766167,27.878225 67.551117,27.955540 
	C67.696907,28.712769 67.371841,29.421312 66.619957,30.535610 
	C66.134766,30.080273 66.076401,29.219179 66.077995,28.089531 
z"/>
<path fill="#E7ECEE" opacity="1.000000" stroke="none" 
	d="
M8.794197,44.163418 
	C15.783717,49.539173 12.743140,57.143673 13.162261,63.971416 
	C13.189404,64.413597 12.925416,65.031052 12.586050,65.315224 
	C4.938163,71.719223 7.568470,79.092918 10.563396,86.848358 
	C9.459767,88.172218 8.196535,89.687531 6.314167,91.945526 
	C6.314167,65.374649 6.314167,39.638546 6.314167,13.587658 
	C16.416677,13.587658 26.508940,13.587658 37.158817,13.587658 
	C35.822262,17.567381 36.434143,21.890924 31.225409,23.899153 
	C26.997482,25.529230 22.857462,35.644276 24.040249,40.706577 
	C25.161314,45.504723 23.690222,46.393841 19.284374,45.253445 
	C16.093439,44.427509 12.735174,44.248035 9.209387,43.910465 
	C8.909563,44.081570 8.851880,44.122494 8.794197,44.163418 
z"/>
<path fill="#E9EDEF" opacity="1.000000" stroke="none" 
	d="
M29.896717,70.576942 
	C29.412443,71.705025 28.779957,72.531799 28.038424,73.110413 
	C27.929377,72.862251 27.860624,72.558434 27.829960,72.267517 
	C27.598215,71.721321 27.341038,71.646301 27.027763,71.751526 
	C25.616863,71.725899 24.205963,71.700272 22.248867,71.609268 
	C21.419287,71.516647 21.188675,71.616959 21.010839,71.844826 
	C18.318626,70.515419 15.456407,69.329033 16.056192,65.030914 
	C16.284456,63.689503 16.155519,62.847878 16.026581,62.006252 
	C16.080584,58.637375 16.134586,55.268497 16.274319,51.311462 
	C16.403389,50.429260 16.305178,50.190014 16.065416,50.005566 
	C16.065416,50.005566 15.840436,49.755917 15.887966,49.192791 
	C15.953917,48.365803 15.972338,48.101940 15.990759,47.838081 
	C16.753660,47.805836 17.516560,47.773586 18.876339,48.067123 
	C20.234129,48.600330 20.995041,48.807743 21.755953,49.015156 
	C21.993441,51.177883 22.230928,53.340614 22.404736,56.184879 
	C22.519922,57.240871 22.698790,57.615330 22.877655,57.989784 
	C25.167938,62.085072 27.458221,66.180359 29.896717,70.576942 
z"/>
<path fill="#DBE5EC" opacity="1.000000" stroke="none" 
	d="
M17.851795,77.156219 
	C17.994373,78.432320 18.170843,79.283058 18.512144,80.928429 
	C20.074293,78.052872 21.234133,75.917877 22.393970,73.782875 
	C22.800688,73.967728 23.207405,74.152573 23.614122,74.337418 
	C23.614122,77.574036 23.811693,80.825943 23.562719,84.043297 
	C23.269855,87.827835 21.195381,89.300705 17.394197,88.021446 
	C12.748346,86.457924 9.901751,81.758018 10.233644,75.598671 
	C10.347044,73.494194 10.934077,71.415222 11.363497,68.992996 
	C15.562837,70.303993 18.311121,72.174637 17.851795,77.156219 
z"/>
<path fill="#CFE1EC" opacity="1.000000" stroke="none" 
	d="
M29.137775,92.852264 
	C30.633177,92.548599 32.128578,92.244934 33.786999,91.908165 
	C34.423065,93.738991 35.110832,95.718636 35.798115,97.696877 
	C31.526901,99.231163 31.031517,98.985458 28.646870,93.694969 
	C28.771254,93.186073 29.137775,92.852264 29.137775,92.852264 
z"/>
<path fill="#DFE8EE" opacity="1.000000" stroke="none" 
	d="
M15.998302,62.377914 
	C16.155519,62.847878 16.284456,63.689503 16.250748,64.756508 
	C16.048744,64.237785 16.009384,63.493683 15.998302,62.377914 
z"/>
<path fill="#DFE8EE" opacity="1.000000" stroke="none" 
	d="
M21.610769,48.731972 
	C20.995041,48.807743 20.234129,48.600330 19.239006,48.206615 
	C19.825058,48.163139 20.645323,48.305962 21.610769,48.731972 
z"/>
<path fill="#CFE1EC" opacity="1.000000" stroke="none" 
	d="
M28.579384,93.343002 
	C28.573128,93.133461 28.758741,92.766983 29.041065,92.626389 
	C29.137775,92.852264 28.771254,93.186073 28.579384,93.343002 
z"/>
<path fill="#DFE8EE" opacity="1.000000" stroke="none" 
	d="
M16.062578,50.255634 
	C16.305178,50.190014 16.403389,50.429260 16.300539,50.847580 
	C16.180603,50.816475 16.120173,50.661087 16.062578,50.255634 
z"/>
<path fill="#DFE8EE" opacity="1.000000" stroke="none" 
	d="
M27.230274,71.907288 
	C27.341038,71.646301 27.598215,71.721321 27.853695,72.113586 
	C27.749657,72.188072 27.591221,72.125557 27.230274,71.907288 
z"/>
<path fill="#DFE8EE" opacity="1.000000" stroke="none" 
	d="
M21.256214,71.847000 
	C21.188675,71.616959 21.419287,71.516647 21.825300,71.594513 
	C21.947927,71.645142 21.501587,71.849174 21.256214,71.847000 
z"/>
<path fill="#DFE8EE" opacity="1.000000" stroke="none" 
	d="
M22.883236,57.655525 
	C22.698790,57.615330 22.519922,57.240871 22.262138,56.563416 
	C22.418421,56.614033 22.653620,56.967648 22.883236,57.655525 
z"/>
<path fill="#DFE8EE" opacity="1.000000" stroke="none" 
	d="
M15.707427,47.894901 
	C15.972338,48.101940 15.953917,48.365803 15.885870,49.024773 
	C15.698862,48.930492 15.561479,48.441109 15.707427,47.894901 
z"/>
<path fill="#0069B1" opacity="1.000000" stroke="none" 
	d="
M119.432320,37.073265 
	C117.583519,36.554802 116.112694,35.464657 114.647224,35.471809 
	C101.600853,35.535442 88.554283,35.943249 75.510864,35.843796 
	C73.365326,35.827435 71.234863,33.834587 69.048050,32.378487 
	C147.452850,32.001480 225.907043,32.006046 304.361237,31.976894 
	C306.666840,31.976036 308.972351,31.619932 311.631714,31.219929 
	C314.433716,31.920053 316.881897,32.829712 319.633789,33.912628 
	C318.767670,34.988750 317.611938,36.655685 316.425873,36.677578 
	C302.956329,36.926250 289.482117,36.923450 275.566345,36.984261 
	C271.138458,37.034210 267.153442,37.087833 262.349976,36.985241 
	C259.572998,36.571064 257.608826,36.055637 255.656876,36.098366 
	C245.593643,36.318638 235.534317,36.909897 225.472183,36.944473 
	C208.447540,37.002991 191.421448,36.606392 174.396652,36.652279 
	C157.703629,36.697269 141.011444,37.055420 124.318886,37.276131 
	C122.816849,37.187565 121.314819,37.098999 119.432320,37.073265 
z"/>
<path fill="#0073B9" opacity="1.000000" stroke="none" 
	d="
M124.474503,37.561115 
	C141.011444,37.055420 157.703629,36.697269 174.396652,36.652279 
	C191.421448,36.606392 208.447540,37.002991 225.472183,36.944473 
	C235.534317,36.909897 245.593643,36.318638 255.656876,36.098366 
	C257.608826,36.055637 259.572998,36.571064 261.918701,36.998299 
	C262.256897,37.533310 262.207886,37.899044 261.777771,38.780247 
	C259.269073,39.530205 257.141602,39.967350 255.013763,39.969269 
	C212.041138,40.007996 169.068451,39.996742 126.095772,39.995529 
	C125.607216,39.279053 125.118660,38.562576 124.474503,37.561115 
z"/>
<path fill="#007CC1" opacity="1.000000" stroke="none" 
	d="
M126.061676,40.368912 
	C169.068451,39.996742 212.041138,40.007996 255.013763,39.969269 
	C257.141602,39.967350 259.269073,39.530205 261.744324,39.055225 
	C267.168457,39.455128 264.638947,43.029476 264.451569,45.909248 
	C263.587738,42.299507 260.524811,43.021091 257.966370,43.019291 
	C220.824921,42.993160 183.683456,43.001335 146.542007,43.000465 
	C140.046417,43.000313 133.550842,42.996334 126.595367,42.989529 
	C126.099518,42.237389 126.063553,41.489845 126.061676,40.368912 
z"/>
<path fill="#0696D5" opacity="1.000000" stroke="none" 
	d="
M102.382431,53.364525 
	C99.494080,58.523174 96.739029,63.344738 93.891174,68.506416 
	C93.201202,67.601212 92.129860,66.371819 92.087433,65.107880 
	C91.884140,59.051914 91.959358,52.986599 92.468292,46.463081 
	C97.246506,46.009457 101.492035,46.017353 105.737564,46.025253 
	C104.663620,48.359314 103.589676,50.693375 102.382431,53.364525 
z"/>
<path fill="#0282C5" opacity="1.000000" stroke="none" 
	d="
M105.888962,45.690498 
	C101.492035,46.017353 97.246506,46.009457 92.543747,45.999374 
	C91.380653,42.981575 92.132858,40.903793 95.817001,40.266060 
	C98.355942,39.979412 100.660797,39.987995 103.395996,39.996605 
	C105.562576,41.370590 108.487564,42.253448 105.888962,45.690498 
z"/>
<path fill="#107DB9" opacity="1.000000" stroke="none" 
	d="
M80.300751,41.637470 
	C80.132111,41.732555 79.800987,41.579521 79.249550,41.264576 
	C79.398918,41.198227 79.768593,41.293789 80.300751,41.637470 
z"/>
<path fill="#0B97D5" opacity="1.000000" stroke="none" 
	d="
M234.365143,77.425964 
	C233.405548,75.716690 231.987305,73.719795 232.380539,72.187859 
	C233.877762,66.354782 235.959656,60.671780 237.973190,54.626282 
	C239.610962,54.820572 241.931122,54.892860 242.446320,55.894005 
	C245.084000,61.019608 240.001053,74.601799 234.365143,77.425964 
z"/>
<path fill="#0A97D5" opacity="1.000000" stroke="none" 
	d="
M173.884430,76.559036 
	C173.289337,76.996185 172.864120,77.123589 171.973755,77.378403 
	C171.508606,77.505814 171.165344,77.638184 171.165344,77.638184 
	C170.434219,75.925484 168.766937,73.971733 169.135040,72.542076 
	C170.677277,66.552551 172.829483,60.720085 175.160843,54.450272 
	C175.699265,53.968826 175.835068,53.867188 175.970886,53.765549 
	C176.713669,53.846245 177.456451,53.926937 178.562057,54.103180 
	C180.919098,62.348015 178.701431,69.566971 173.884430,76.559036 
z"/>
<path fill="#0A97D5" opacity="1.000000" stroke="none" 
	d="
M300.849609,76.539368 
	C300.678009,76.851318 300.292542,76.921837 299.836853,77.075394 
	C298.989594,77.367813 298.598022,77.506683 298.206451,77.645561 
	C297.454285,75.946144 295.752472,74.003273 296.114868,72.589592 
	C297.658264,66.569115 299.812592,60.705261 302.147095,54.408325 
	C302.690063,53.936237 302.829895,53.840069 302.969757,53.743896 
	C303.709961,53.838737 304.450134,53.933578 305.552002,54.126320 
	C307.915833,62.366413 305.559662,69.539528 300.849609,76.539368 
z"/>
<path fill="#DEE9EF" opacity="1.000000" stroke="none" 
	d="
M171.251526,77.672195 
	C171.165344,77.638184 171.508606,77.505814 171.686920,77.549454 
	C171.703888,77.702469 171.528061,77.740173 171.251526,77.672195 
z"/>
<path fill="#DEE9EF" opacity="1.000000" stroke="none" 
	d="
M175.831421,53.737389 
	C175.835068,53.867188 175.699265,53.968826 175.320023,54.144501 
	C175.182800,53.920547 175.387924,53.750778 175.831421,53.737389 
z"/>
<path fill="#DEE9EF" opacity="1.000000" stroke="none" 
	d="
M298.419556,77.725319 
	C298.598022,77.506683 298.989594,77.367813 299.694397,77.209900 
	C300.007599,77.190857 300.002960,77.588593 299.994598,77.787140 
	C299.535034,77.925484 299.083862,77.865280 298.419556,77.725319 
z"/>
<path fill="#DEE9EF" opacity="1.000000" stroke="none" 
	d="
M302.830933,53.714066 
	C302.829895,53.840069 302.690063,53.936237 302.305664,54.103024 
	C302.177704,53.881584 302.388031,53.718449 302.830933,53.714066 
z"/>
<path fill="#107DB9" opacity="1.000000" stroke="none" 
	d="
M8.762119,44.180107 
	C8.851880,44.122494 8.909563,44.081570 8.815737,44.133720 
	C8.664227,44.226788 8.730041,44.196800 8.762119,44.180107 
z"/>
</svg>